<svg xmlns="http://www.w3.org/2000/svg" viewBox="0 0 200 50">
  <!-- OH Monogram simplified - charcoal color #2D2A26 -->
  <g transform="translate(0, 3)" fill="#2D2A26">
    <path d="M5 22c0-10.5 7-19 18-19s18 8.5 18 19-7 19-18 19S5 32.5 5 22zm6 0c0 7 5 13 12 13s12-6 12-13-5-13-12-13-12 6-12 13z"/>
    <path d="M19 3h5v38h-5z"/>
    <path d="M33 3h5v38h-5z"/>
    <path d="M19 19h19v5H19z"/>
    <path d="M10 20c10-5 22-5 32 0l-1.5 3c-9-4-20-4-29 0z" opacity="0.6"/>
  </g>

  <!-- OLD HEAD -->
  <text x="50" y="22" fill="#2D2A26" font-family="Georgia, 'Times New Roman', serif" font-size="18" font-weight="700" letter-spacing="2">OLD HEAD</text>

  <!-- PLASTER with lines -->
  <line x1="50" y1="32" x2="72" y2="32" stroke="#2D2A26" stroke-width="1"/>
  <text x="76" y="36" fill="#2D2A26" font-family="Georgia, 'Times New Roman', serif" font-size="10" font-weight="400" letter-spacing="4">PLASTER</text>
  <line x1="142" y1="32" x2="164" y2="32" stroke="#2D2A26" stroke-width="1"/>
</svg>
