<svg xmlns="http://www.w3.org/2000/svg" viewBox="0 0 290 290">
  <defs>
    <style>
      .qr-module { fill: #2D2A26; }
      .qr-bg { fill: #FAFAF8; }
    </style>
  </defs>

  <!-- Background -->
  <rect class="qr-bg" width="290" height="290" rx="8"/>

  <!-- QR Code Pattern -->
  <g transform="translate(20, 20)">
    <!-- Top-left finder pattern -->
    <rect class="qr-module" x="0" y="0" width="70" height="70"/>
    <rect class="qr-bg" x="10" y="10" width="50" height="50"/>
    <rect class="qr-module" x="20" y="20" width="30" height="30"/>

    <!-- Top-right finder pattern -->
    <rect class="qr-module" x="180" y="0" width="70" height="70"/>
    <rect class="qr-bg" x="190" y="10" width="50" height="50"/>
    <rect class="qr-module" x="200" y="20" width="30" height="30"/>

    <!-- Bottom-left finder pattern -->
    <rect class="qr-module" x="0" y="180" width="70" height="70"/>
    <rect class="qr-bg" x="10" y="190" width="50" height="50"/>
    <rect class="qr-module" x="20" y="200" width="30" height="30"/>

    <!-- Timing patterns -->
    <rect class="qr-module" x="80" y="60" width="10" height="10"/>
    <rect class="qr-module" x="100" y="60" width="10" height="10"/>
    <rect class="qr-module" x="120" y="60" width="10" height="10"/>
    <rect class="qr-module" x="140" y="60" width="10" height="10"/>
    <rect class="qr-module" x="160" y="60" width="10" height="10"/>

    <rect class="qr-module" x="60" y="80" width="10" height="10"/>
    <rect class="qr-module" x="60" y="100" width="10" height="10"/>
    <rect class="qr-module" x="60" y="120" width="10" height="10"/>
    <rect class="qr-module" x="60" y="140" width="10" height="10"/>
    <rect class="qr-module" x="60" y="160" width="10" height="10"/>

    <!-- Alignment pattern -->
    <rect class="qr-module" x="190" y="190" width="30" height="30"/>
    <rect class="qr-bg" x="195" y="195" width="20" height="20"/>
    <rect class="qr-module" x="200" y="200" width="10" height="10"/>

    <!-- Data modules - Top area -->
    <rect class="qr-module" x="80" y="0" width="10" height="10"/>
    <rect class="qr-module" x="100" y="0" width="10" height="10"/>
    <rect class="qr-module" x="110" y="0" width="10" height="10"/>
    <rect class="qr-module" x="140" y="0" width="10" height="10"/>
    <rect class="qr-module" x="160" y="0" width="10" height="10"/>

    <rect class="qr-module" x="80" y="10" width="10" height="10"/>
    <rect class="qr-module" x="120" y="10" width="10" height="10"/>
    <rect class="qr-module" x="130" y="10" width="10" height="10"/>
    <rect class="qr-module" x="150" y="10" width="10" height="10"/>

    <rect class="qr-module" x="90" y="20" width="10" height="10"/>
    <rect class="qr-module" x="110" y="20" width="10" height="10"/>
    <rect class="qr-module" x="140" y="20" width="10" height="10"/>
    <rect class="qr-module" x="160" y="20" width="10" height="10"/>

    <rect class="qr-module" x="80" y="30" width="10" height="10"/>
    <rect class="qr-module" x="100" y="30" width="10" height="10"/>
    <rect class="qr-module" x="120" y="30" width="10" height="10"/>
    <rect class="qr-module" x="150" y="30" width="10" height="10"/>

    <rect class="qr-module" x="90" y="40" width="10" height="10"/>
    <rect class="qr-module" x="110" y="40" width="10" height="10"/>
    <rect class="qr-module" x="130" y="40" width="10" height="10"/>
    <rect class="qr-module" x="160" y="40" width="10" height="10"/>

    <rect class="qr-module" x="80" y="50" width="10" height="10"/>
    <rect class="qr-module" x="120" y="50" width="10" height="10"/>
    <rect class="qr-module" x="140" y="50" width="10" height="10"/>
    <rect class="qr-module" x="150" y="50" width="10" height="10"/>

    <!-- Data modules - Left side -->
    <rect class="qr-module" x="0" y="80" width="10" height="10"/>
    <rect class="qr-module" x="20" y="80" width="10" height="10"/>
    <rect class="qr-module" x="40" y="80" width="10" height="10"/>

    <rect class="qr-module" x="10" y="90" width="10" height="10"/>
    <rect class="qr-module" x="30" y="90" width="10" height="10"/>
    <rect class="qr-module" x="50" y="90" width="10" height="10"/>

    <rect class="qr-module" x="0" y="100" width="10" height="10"/>
    <rect class="qr-module" x="20" y="100" width="10" height="10"/>
    <rect class="qr-module" x="40" y="100" width="10" height="10"/>

    <rect class="qr-module" x="10" y="110" width="10" height="10"/>
    <rect class="qr-module" x="30" y="110" width="10" height="10"/>

    <rect class="qr-module" x="0" y="120" width="10" height="10"/>
    <rect class="qr-module" x="40" y="120" width="10" height="10"/>

    <rect class="qr-module" x="20" y="130" width="10" height="10"/>
    <rect class="qr-module" x="50" y="130" width="10" height="10"/>

    <rect class="qr-module" x="0" y="140" width="10" height="10"/>
    <rect class="qr-module" x="30" y="140" width="10" height="10"/>

    <rect class="qr-module" x="10" y="150" width="10" height="10"/>
    <rect class="qr-module" x="40" y="150" width="10" height="10"/>

    <rect class="qr-module" x="0" y="160" width="10" height="10"/>
    <rect class="qr-module" x="20" y="160" width="10" height="10"/>
    <rect class="qr-module" x="50" y="160" width="10" height="10"/>

    <!-- Data modules - Right side -->
    <rect class="qr-module" x="200" y="80" width="10" height="10"/>
    <rect class="qr-module" x="220" y="80" width="10" height="10"/>
    <rect class="qr-module" x="240" y="80" width="10" height="10"/>

    <rect class="qr-module" x="190" y="90" width="10" height="10"/>
    <rect class="qr-module" x="210" y="90" width="10" height="10"/>
    <rect class="qr-module" x="230" y="90" width="10" height="10"/>

    <rect class="qr-module" x="200" y="100" width="10" height="10"/>
    <rect class="qr-module" x="240" y="100" width="10" height="10"/>

    <rect class="qr-module" x="190" y="110" width="10" height="10"/>
    <rect class="qr-module" x="220" y="110" width="10" height="10"/>

    <rect class="qr-module" x="200" y="120" width="10" height="10"/>
    <rect class="qr-module" x="230" y="120" width="10" height="10"/>
    <rect class="qr-module" x="240" y="120" width="10" height="10"/>

    <rect class="qr-module" x="190" y="130" width="10" height="10"/>
    <rect class="qr-module" x="210" y="130" width="10" height="10"/>

    <rect class="qr-module" x="200" y="140" width="10" height="10"/>
    <rect class="qr-module" x="220" y="140" width="10" height="10"/>
    <rect class="qr-module" x="240" y="140" width="10" height="10"/>

    <rect class="qr-module" x="190" y="150" width="10" height="10"/>
    <rect class="qr-module" x="230" y="150" width="10" height="10"/>

    <rect class="qr-module" x="200" y="160" width="10" height="10"/>
    <rect class="qr-module" x="210" y="160" width="10" height="10"/>
    <rect class="qr-module" x="240" y="160" width="10" height="10"/>

    <rect class="qr-module" x="220" y="170" width="10" height="10"/>
    <rect class="qr-module" x="240" y="170" width="10" height="10"/>

    <!-- Data modules - Bottom area -->
    <rect class="qr-module" x="80" y="180" width="10" height="10"/>
    <rect class="qr-module" x="100" y="180" width="10" height="10"/>
    <rect class="qr-module" x="130" y="180" width="10" height="10"/>
    <rect class="qr-module" x="150" y="180" width="10" height="10"/>
    <rect class="qr-module" x="170" y="180" width="10" height="10"/>

    <rect class="qr-module" x="80" y="190" width="10" height="10"/>
    <rect class="qr-module" x="110" y="190" width="10" height="10"/>
    <rect class="qr-module" x="140" y="190" width="10" height="10"/>
    <rect class="qr-module" x="160" y="190" width="10" height="10"/>

    <rect class="qr-module" x="90" y="200" width="10" height="10"/>
    <rect class="qr-module" x="120" y="200" width="10" height="10"/>
    <rect class="qr-module" x="150" y="200" width="10" height="10"/>
    <rect class="qr-module" x="170" y="200" width="10" height="10"/>

    <rect class="qr-module" x="80" y="210" width="10" height="10"/>
    <rect class="qr-module" x="100" y="210" width="10" height="10"/>
    <rect class="qr-module" x="130" y="210" width="10" height="10"/>
    <rect class="qr-module" x="160" y="210" width="10" height="10"/>

    <rect class="qr-module" x="90" y="220" width="10" height="10"/>
    <rect class="qr-module" x="110" y="220" width="10" height="10"/>
    <rect class="qr-module" x="140" y="220" width="10" height="10"/>
    <rect class="qr-module" x="150" y="220" width="10" height="10"/>
    <rect class="qr-module" x="170" y="220" width="10" height="10"/>

    <rect class="qr-module" x="80" y="230" width="10" height="10"/>
    <rect class="qr-module" x="120" y="230" width="10" height="10"/>
    <rect class="qr-module" x="160" y="230" width="10" height="10"/>

    <rect class="qr-module" x="90" y="240" width="10" height="10"/>
    <rect class="qr-module" x="100" y="240" width="10" height="10"/>
    <rect class="qr-module" x="130" y="240" width="10" height="10"/>
    <rect class="qr-module" x="150" y="240" width="10" height="10"/>
    <rect class="qr-module" x="170" y="240" width="10" height="10"/>
  </g>

  <!-- Center logo area - white background circle -->
  <circle cx="145" cy="145" r="44" fill="#FAFAF8"/>
  <circle cx="145" cy="145" r="44" fill="none" stroke="#2D2A26" stroke-width="2"/>

  <!-- Headland Seal Logo in center -->
  <g transform="translate(145, 145)" fill="none" stroke="#2D2A26">
    <!-- Outer circle -->
    <circle cx="0" cy="0" r="32" stroke-width="2"/>
    <!-- Inner circle -->
    <circle cx="0" cy="0" r="26" stroke-width="1"/>

    <!-- H inside circle -->
    <g stroke="none" fill="#2D2A26">
      <!-- Left vertical -->
      <rect x="-10" y="-20" width="4" height="40"/>
      <!-- Right vertical -->
      <rect x="6" y="-20" width="4" height="40"/>
      <!-- Crossbar -->
      <rect x="-10" y="-2" width="20" height="4"/>
    </g>

    <!-- Horizon line extending beyond circle -->
    <line x1="-38" y1="0" x2="38" y2="0" stroke-width="2"/>
  </g>
</svg>
